<svg width="69" height="96" viewBox="0 0 69 96" fill="none" xmlns="http://www.w3.org/2000/svg">
<path d="M66.0817 38.6362C66.0817 39.8173 66.0856 41.0276 66.0896 42.2608C66.1239 52.9145 66.1638 65.2826 63.739 75.3899C62.3903 81.0114 60.3127 85.7692 57.1807 89.1069C54.0964 92.3938 49.8961 94.4059 44.026 94.4059C32.1017 94.4059 21.5004 87.5976 13.8205 77.8607C6.13833 68.121 1.54712 55.6487 1.54712 44.736C1.54712 33.9828 7.35041 23.3496 16.3334 15.3613C25.3083 7.38027 37.3053 2.18237 49.4137 2.18237C55.563 2.18237 59.4979 3.13318 62.0269 4.70978C64.4757 6.23636 65.7806 8.46098 66.424 11.5011C67.083 14.6151 67.0223 18.468 66.7679 23.0963C66.7094 24.16 66.6409 25.2621 66.5703 26.3991C66.3377 30.1425 66.0817 34.2636 66.0817 38.6362Z" stroke="black" stroke-width="3"/>
<line x1="1.5" y1="-1.5" x2="40.2085" y2="-1.5" transform="matrix(0.222303 -0.974978 0.983259 0.182212 31.5706 52.2754)" stroke="black" stroke-width="3" stroke-linecap="round"/>
<line x1="1.5" y1="-1.5" x2="28.0541" y2="-1.5" transform="matrix(0.996459 -0.0840841 0.103268 0.994654 29.5657 52.2754)" stroke="black" stroke-width="3" stroke-linecap="round"/>
</svg>
