<svg width="69" height="88" viewBox="0 0 69 88" fill="none" xmlns="http://www.w3.org/2000/svg">
<path d="M66.9 43.5883C66.9 55.5359 65.2406 66.1277 61.0587 73.6835C58.9803 77.4387 56.2931 80.4187 52.8919 82.4661C49.4932 84.512 45.2988 85.6766 40.1266 85.6766C29.9236 85.6766 20.2858 79.66 13.137 70.5194C5.99715 61.3901 1.5 49.3302 1.5 37.6554C1.5 26.0347 5.95203 17.0387 12.9425 10.9298C19.9571 4.79988 29.6205 1.5 40.1266 1.5C45.2988 1.5 49.4932 2.66455 52.8919 4.71051C56.2931 6.75791 58.9803 9.73792 61.0587 13.4931C65.2406 21.0489 66.9 31.6407 66.9 43.5883Z" stroke="black" stroke-width="3"/>
<path d="M43.8845 19.255C43.8845 19.255 23.9239 18.4041 20.3957 23.1294C16.8675 27.8546 21.5444 35.3608 24.6371 37.053C27.7299 38.7453 45.4549 38.6242 47.9417 45.1657C50.4284 51.7071 52.0596 54.2498 47.9417 61.8745C43.8237 69.4992 32.5748 67.8074 32.5748 67.8074" stroke="black" stroke-width="3" stroke-linecap="round"/>
<line x1="1.5" y1="-1.5" x2="67.5064" y2="-1.5" transform="matrix(0.156978 0.987602 -0.981133 0.193334 31.2095 8.47534)" stroke="black" stroke-width="3" stroke-linecap="round"/>
</svg>
